<?xml version="1.0" encoding="utf-8"?>
<svg viewBox="74 68 350 350" xmlns="http://www.w3.org/2000/svg">
  <defs>
    <pattern id="pattern-0" x="0" y="0" width="20" height="20" patternUnits="userSpaceOnUse" viewBox="0 0 100 100">
      <path d="M 0 0 L 50 0 L 50 100 L 0 100 Z" style="fill: black;"/>
    </pattern>
  </defs>
  <rect x="74" y="68" width="350" height="350" transform="matrix(0, 1, -1, 0, 491.999969, -5.999991)" style="fill: rgb(151, 0, 10);"/>
  <path d="M 235.565 163.558 C 235.565 162.595 235.842 161.621 236.409 160.787 L 266.199 116.522 C 267.727 114.247 270.815 113.642 273.089 115.17 C 275.363 116.7 275.968 119.768 274.44 122.051 L 246.508 163.558 L 274.44 205.054 C 275.958 207.327 275.373 210.405 273.089 211.944 C 270.815 213.474 267.727 212.868 266.199 210.595 L 236.409 166.328 C 235.854 165.484 235.565 164.521 235.565 163.558 Z M 225.635 366.688 C 225.635 365.735 225.902 364.781 226.479 363.927 L 254.42 322.431 L 226.488 280.924 C 224.96 278.651 225.556 275.573 227.84 274.044 C 230.123 272.516 233.201 273.111 234.73 275.395 L 264.518 319.66 C 265.64 321.339 265.64 323.533 264.518 325.212 L 234.73 369.478 C 233.201 371.753 230.112 372.357 227.84 370.828 C 226.409 369.844 225.635 368.275 225.635 366.688 Z M 240.53 247.96 L 240.53 238.03 L 317.177 238.03 C 336.251 238.03 351.772 222.441 351.772 203.276 C 351.772 184.113 336.112 168.523 316.848 168.523 L 240.53 168.523 L 240.53 158.593 L 316.868 158.593 C 341.594 158.593 361.731 178.641 361.731 203.276 C 361.731 227.912 341.752 247.96 317.226 247.96 L 240.53 247.96 Z M 136.269 282.714 C 136.269 258.078 156.376 238.03 181.111 238.03 L 260.389 238.03 L 260.389 247.96 L 181.111 247.96 C 161.868 247.96 146.199 263.549 146.199 282.714 C 146.199 301.878 161.719 317.467 180.793 317.467 L 260.389 317.467 L 260.389 327.396 L 180.793 327.396 C 156.248 327.396 136.269 307.339 136.269 282.714 Z" style="fill: rgb(249, 247, 247);"/>
</svg>