<?xml version="1.0" encoding="utf-8"?>
<svg id="Слой_1" x="0px" y="0px" width="50px" height="50px" viewBox="0 0 56 56" xmlns="http://www.w3.org/2000/svg">
  <ellipse cx="-28" cy="-28" rx="25" ry="25" style="fill: rgb(255, 255, 255);" transform="matrix(0, -1, -1, 0, -0.000001, -0.000004)"/>
  <path d="M 28 53 C 14.215 53 3 41.785 3 28 C 3 14.215 14.215 3 28 3 C 41.785 3 53 14.215 53 28 C 53 41.785 41.785 53 28 53 Z M 35.222 24.04 C 35.222 21.658 37.145 19.72 39.508 19.72 C 41.871 19.72 43.794 21.658 43.794 24.04 C 43.794 26.422 41.871 28.36 39.508 28.36 C 37.145 28.36 35.222 26.422 35.222 24.04 Z M 44.508 24.04 C 44.508 21.261 42.266 19 39.508 19 C 36.75 19 34.508 21.261 34.508 24.04 L 34.508 31.96 C 34.508 34.739 36.75 37 39.508 37 C 42.266 37 44.508 34.739 44.508 31.96 L 44.508 24.04 Z M 33.707 14.293 L 28.707 9.294 C 28.707 9.293 28.706 9.293 28.706 9.292 L 28 8.586 L 27.294 9.292 C 27.294 9.293 27.293 9.293 27.293 9.294 L 22.293 14.293 C 21.902 14.684 21.902 15.316 22.293 15.707 C 22.684 16.098 23.316 16.098 23.707 15.707 L 27 12.414 L 27 22 C 27 22.553 27.448 23 28 23 C 28.552 23 29 22.553 29 22 L 29 12.414 L 32.293 15.707 C 32.684 16.098 33.316 16.098 33.707 15.707 C 34.098 15.316 34.098 14.684 33.707 14.293 Z M 22.293 41.707 L 27.293 46.707 C 27.293 46.707 27.293 46.707 27.294 46.708 L 28 47.414 L 28.707 46.707 C 28.707 46.707 28.707 46.707 28.708 46.706 L 33.708 41.706 C 34.099 41.315 34.099 40.683 33.708 40.292 C 33.512 40.098 33.256 40 33 40 C 32.744 40 32.488 40.098 32.293 40.293 L 29 43.586 L 29 34 C 29 33.448 28.552 33 28 33 C 27.448 33 27 33.448 27 34 L 27 43.586 L 23.707 40.293 C 23.316 39.902 22.684 39.902 22.293 40.293 C 21.902 40.684 21.902 41.316 22.293 41.707 Z M 17 22 C 16.744 22 16.488 22.098 16.293 22.293 C 15.902 22.684 15.902 23.316 16.293 23.707 L 19.586 27 L 10 27 C 9.448 27 9 27.448 9 28 C 9 28.552 9.448 29 10 29 L 19.586 29 L 16.293 32.293 C 15.902 32.684 15.902 33.316 16.293 33.707 C 16.684 34.098 17.316 34.098 17.707 33.707 L 22.707 28.707 C 22.707 28.707 22.707 28.707 22.708 28.706 L 23.414 28 L 22.707 27.293 C 22.707 27.293 22.707 27.293 22.706 27.292 L 17.706 22.292 C 17.512 22.098 17.256 22 17 22 Z" style="fill: rgb(106, 172, 191);" transform="matrix(0, 1, -1, 0, 56.000001, -0.000003)"/>
</svg>