<?xml version="1.0" encoding="utf-8"?>
<svg viewBox="74 68 350 350" xmlns="http://www.w3.org/2000/svg">
  <defs>
    <pattern id="pattern-0" x="0" y="0" width="20" height="20" patternUnits="userSpaceOnUse" viewBox="0 0 100 100">
      <path d="M 0 0 L 50 0 L 50 100 L 0 100 Z" style="fill: black;"/>
    </pattern>
    <linearGradient id="gradient-7" gradientUnits="userSpaceOnUse" x1="249" y1="68" x2="249" y2="418" gradientTransform="matrix(0.002028, -0.999998, 1.001107, 0.002031, 5.775483, 674.389261)" spreadMethod="pad">
      <stop offset="0" style="stop-color: rgb(0, 199, 122);"/>
      <stop offset="1" style="stop-color: rgb(0, 123, 76);"/>
    </linearGradient>
  </defs>
  <rect x="74" y="68" width="350" height="350" transform="matrix(0, 1, -1, 0, 491.999969, -5.999991)" style="fill: url(#gradient-7);"/>
  <path d="M 256.901 173.825 C 255.777 173.825 254.64 173.501 253.666 172.84 L 201.977 138.054 C 199.321 136.269 198.614 132.664 200.399 130.008 C 202.185 127.353 205.768 126.647 208.434 128.431 L 256.901 161.047 L 305.356 128.431 C 308.011 126.658 311.605 127.341 313.402 130.008 C 315.188 132.664 314.481 136.269 311.826 138.054 L 260.136 172.84 C 259.15 173.488 258.026 173.825 256.901 173.825 Z" style="fill: rgb(249, 247, 247);" transform="matrix(0, 1, -1, 0, 407.136989, -106.664996)"/>
  <path d="M 296.352 358.721 C 295.239 358.721 294.126 358.409 293.129 357.736 L 244.674 325.109 L 196.207 357.725 C 193.553 359.51 189.958 358.814 188.173 356.147 C 186.387 353.481 187.083 349.886 189.749 348.101 L 241.439 313.318 C 243.398 312.007 245.961 312.007 247.921 313.318 L 299.611 348.101 C 302.266 349.886 302.973 353.493 301.187 356.147 C 300.039 357.818 298.207 358.721 296.352 358.721 Z" style="fill: rgb(255, 255, 255);" transform="matrix(0, 1, -1, 0, 580.438454, 91.078488)"/>
  <path d="M 362.05 267.379 L 350.454 267.379 L 350.454 177.879 C 350.454 155.606 332.251 137.482 309.872 137.482 C 287.495 137.482 269.291 155.768 269.291 178.263 L 269.291 267.379 L 257.696 267.379 L 257.696 178.239 C 257.696 149.367 281.106 125.853 309.872 125.853 C 338.64 125.853 362.05 149.182 362.05 177.821 L 362.05 267.379 Z" style="fill: rgb(255, 255, 255);" transform="matrix(0, 1, -1, 0, 506.488969, -113.25697)"/>
  <path d="M 189.832 361.841 C 161.065 361.841 137.655 338.362 137.655 309.479 L 137.655 216.906 L 149.251 216.906 L 149.251 309.479 C 149.251 331.949 167.454 350.246 189.832 350.246 C 212.21 350.246 230.414 332.123 230.414 309.85 L 230.414 216.906 L 242.008 216.906 L 242.008 309.85 C 242.008 338.512 218.588 361.841 189.832 361.841 Z" style="fill: rgb(255, 255, 255);" transform="matrix(0, 1, -1, 0, 479.205012, 99.542003)"/>
</svg>