<?xml version="1.0" encoding="utf-8"?>
<!-- Generator: Adobe Illustrator 19.1.1, SVG Export Plug-In . SVG Version: 6.00 Build 0)  -->
<svg version="1.1" id="Layer_1" xmlns="http://www.w3.org/2000/svg" xmlns:xlink="http://www.w3.org/1999/xlink" x="0px" y="0px"
	 viewBox="0 0 50 50" enable-background="new 0 0 50 50" xml:space="preserve">
<path d="M39,4H11c-3.9,0-7,3.1-7,7v28c0,3.9,3.1,7,7,7h28c3.9,0,7-3.1,7-7V11C46,7.1,42.9,4,39,4z M42,39c0,1.7-1.3,3-3,3H11
	c-1.7,0-3-1.3-3-3V11c0-1.7,1.3-3,3-3h28c1.7,0,3,1.3,3,3V39z"/>
</svg>
