<?xml version="1.0" encoding="iso-8859-1"?>
<!-- Generator: Adobe Illustrator 19.1.1, SVG Export Plug-In . SVG Version: 6.00 Build 0)  -->
<svg version="1.1" id="Layer_1" xmlns="http://www.w3.org/2000/svg" xmlns:xlink="http://www.w3.org/1999/xlink" x="0px" y="0px"
	 viewBox="0 0 50 50" enable-background="new 0 0 50 50" xml:space="preserve">
<path fill="#231F20" d="M2.968,27H28.14l-3.586,3.586c-0.781,0.781-0.781,2.047,0,2.828s2.048,0.781,2.828,0l7-7
	c0.781-0.781,0.781-2.047,0-2.828l-7-7C26.992,16.195,26.48,16,25.968,16s-1.023,0.195-1.414,0.586
	c-0.781,0.781-0.781,2.047,0,2.828L28.14,23H2.968c-1.104,0-2,0.896-2,2S1.864,27,2.968,27z"/>
<path fill="#231F20" d="M4.126,17.824c1.007,0.455,2.191,0.003,2.644-1.005C9.994,9.64,17.15,5,25,5c11.028,0,20,8.972,20,20
	s-8.972,20-20,20c-7.851,0-15.007-4.64-18.231-11.821c-0.452-1.008-1.639-1.455-2.644-1.005c-1.008,0.453-1.458,1.636-1.005,2.644
	C6.989,43.433,15.577,49,25,49c13.234,0,24-10.766,24-24C49,11.767,38.234,1,25,1C15.577,1,6.989,6.566,3.121,15.181
	C2.668,16.188,3.118,17.372,4.126,17.824z"/>
</svg>
