<?xml version="1.0" encoding="iso-8859-1"?>
<!-- Generator: Adobe Illustrator 19.1.1, SVG Export Plug-In . SVG Version: 6.00 Build 0)  -->
<svg version="1.1" id="Layer_1" xmlns="http://www.w3.org/2000/svg" xmlns:xlink="http://www.w3.org/1999/xlink" x="0px" y="0px"
	 viewBox="0 0 50 50" enable-background="new 0 0 50 50" xml:space="preserve">
<g>
	<path fill="#231F20" d="M25.072,1c13.177,0,23.896,10.767,23.896,24c0,13.234-10.719,24-23.896,24
		c-6.646,0-13.053-2.811-17.576-7.711c-0.749-0.812-0.698-2.077,0.113-2.826c0.813-0.75,2.076-0.698,2.826,0.113
		C14.259,42.719,19.457,45,25.072,45c10.971,0,19.896-8.972,19.896-20c0-11.028-8.925-20-19.896-20c-5.582,0-10.76,2.26-14.58,6.363
		c-0.753,0.809-2.019,0.852-2.827,0.101c-0.808-0.753-0.854-2.019-0.101-2.827C12.15,3.712,18.367,1,25.072,1z"/>
	<path fill="#231F20" d="M24.968,23c1.104,0,2,0.896,2,2s-0.896,2-2,2H7.828l3.586,3.586c0.781,0.781,0.781,2.047,0,2.828
		c-0.78,0.781-2.047,0.781-2.828,0l-7-7c-0.781-0.781-0.781-2.047,0-2.828l7-7C8.977,16.195,9.488,16,10,16s1.024,0.195,1.414,0.586
		c0.781,0.781,0.781,2.047,0,2.828L7.828,23H24.968z"/>
</g>
</svg>
